<svg width="512" height="375" viewBox="0 0 512 375" fill="none" xmlns="http://www.w3.org/2000/svg">
<rect width="512" height="374.5" rx="187.25" fill="#45526C"/>
<path fill-rule="evenodd" clip-rule="evenodd" d="M187.25 81H324.75C383.43 81 431 128.57 431 187.25C431 245.93 383.43 293.5 324.75 293.5H187.25C128.57 293.5 81 245.93 81 187.25C81 128.57 128.57 81 187.25 81ZM187.25 99.75C138.925 99.75 99.75 138.925 99.75 187.25C99.75 235.575 138.925 274.75 187.25 274.75H324.75C373.075 274.75 412.25 235.575 412.25 187.25C412.25 138.925 373.075 99.75 324.75 99.75H187.25ZM187.25 218.5C204.509 218.5 218.5 204.509 218.5 187.25C218.5 169.991 204.509 156 187.25 156C169.991 156 156 169.991 156 187.25C156 204.509 169.991 218.5 187.25 218.5ZM187.25 237.25C214.864 237.25 237.25 214.864 237.25 187.25C237.25 159.636 214.864 137.25 187.25 137.25C159.636 137.25 137.25 159.636 137.25 187.25C137.25 214.864 159.636 237.25 187.25 237.25ZM356 187.25C356 204.509 342.009 218.5 324.75 218.5C307.491 218.5 293.5 204.509 293.5 187.25C293.5 169.991 307.491 156 324.75 156C342.009 156 356 169.991 356 187.25ZM374.75 187.25C374.75 214.864 352.364 237.25 324.75 237.25C297.136 237.25 274.75 214.864 274.75 187.25C274.75 159.636 297.136 137.25 324.75 137.25C352.364 137.25 374.75 159.636 374.75 187.25Z" fill="#F8F5F1"/>
</svg>
